<?xml version="1.0" encoding="UTF-8" standalone="no"?>
<svg
   xmlns:dc="http://purl.org/dc/elements/1.1/"
   xmlns:cc="http://creativecommons.org/ns#"
   xmlns:rdf="http://www.w3.org/1999/02/22-rdf-syntax-ns#"
   xmlns:svg="http://www.w3.org/2000/svg"
   xmlns="http://www.w3.org/2000/svg"
   height="48.049999"
   width="17"
   id="svg3791"
   xml:space="preserve"
   enable-background="new 0 0 48 48"
   viewBox="0 0 17 48.049999"
   y="0px"
   x="0px"
   version="1.1"><metadata
     id="metadata3797"><rdf:RDF><cc:Work
         rdf:about=""><dc:format>image/svg+xml</dc:format><dc:type
           rdf:resource="http://purl.org/dc/dcmitype/StillImage" /><dc:title></dc:title></cc:Work></rdf:RDF></metadata><defs
     id="defs3795" /><g
     transform="translate(-15.6,0.05)"
     id="g3785"><path
       id="path3783"
       d="M 31.5,41.2 H 29.6 V 16.3 c 0,-0.6 -0.4,-1 -1,-1 H 25 v -2.9 c 1.9,-0.5 3.3,-2.1 3.3,-4.1 0,-2 -2.8,-6.9 -3.4,-7.9 -0.4,-0.6 -1.4,-0.6 -1.7,0 -0.6,1 -3.4,5.9 -3.4,7.9 0,2 1.4,3.7 3.3,4.1 v 2.9 h -3.6 c -0.6,0 -1,0.4 -1,1 v 24.9 h -1.9 c -0.6,0 -1,0.4 -1,1 V 47 c 0,0.6 0.4,1 1,1 h 15 c 0.6,0 1,-0.4 1,-1 v -4.8 c -0.1,-0.5 -0.5,-1 -1.1,-1 z M 21.7,8.3 c 0,-0.8 1.1,-3.2 2.3,-5.3 1.1,2.1 2.3,4.5 2.3,5.3 0,1.2 -1,2.3 -2.3,2.3 -1.3,0 -2.3,-1 -2.3,-2.3 z m -1.3,9 h 7.2 V 41.2 H 20.4 Z M 30.5,46 h -13 v -2.8 h 13 z" /></g></svg>