<?xml version="1.0" encoding="UTF-8" standalone="no"?>
<svg
   xmlns:dc="http://purl.org/dc/elements/1.1/"
   xmlns:cc="http://creativecommons.org/ns#"
   xmlns:rdf="http://www.w3.org/1999/02/22-rdf-syntax-ns#"
   xmlns:svg="http://www.w3.org/2000/svg"
   xmlns="http://www.w3.org/2000/svg"
   height="398.228"
   width="398.22699"
   id="svg3807"
   xml:space="preserve"
   enable-background="new 0 0 512 512"
   viewBox="0 0 398.22699 398.228"
   y="0px"
   x="0px"
   version="1.1"><metadata
     id="metadata3813"><rdf:RDF><cc:Work
         rdf:about=""><dc:format>image/svg+xml</dc:format><dc:type
           rdf:resource="http://purl.org/dc/dcmitype/StillImage" /><dc:title></dc:title></cc:Work></rdf:RDF></metadata><defs
     id="defs3811" /><path
     id="path3799"
     d="m 264.821,45.606 c -24.967,0 -45.279,20.312 -45.279,45.279 0,24.971 20.313,45.287 45.279,45.287 24.968,0 45.281,-20.316 45.281,-45.287 0,-12.094 -4.708,-23.464 -13.258,-32.016 -8.551,-8.553 -19.924,-13.263 -32.023,-13.263 z m 0,80.566 c -19.453,0 -35.279,-15.83 -35.279,-35.287 0,-19.453 15.826,-35.279 35.279,-35.279 9.428,0 18.289,3.669 24.951,10.333 6.661,6.663 10.33,15.521 10.33,24.945 0,19.459 -15.827,35.288 -35.281,35.288 z" /><path
     id="path3801"
     d="M 378.331,0 H 19.896 C 8.925,0 0,8.926 0,19.896 v 358.436 c 0,10.971 8.925,19.896 19.896,19.896 h 358.435 c 10.971,0 19.896,-8.926 19.896,-19.896 V 19.896 C 398.227,8.926 389.302,0 378.331,0 Z m 0,388.228 H 19.896 C 14.439,388.228 10,383.789 10,378.332 V 247.282 L 121.538,136.624 c 0.925,-0.903 2.506,-0.894 3.417,-0.002 L 380.697,387.93 c -0.759,0.188 -1.549,0.298 -2.366,0.298 z m 9.894,-9.894 c 0,0.428 -0.033,0.851 -0.089,1.268 -0.06,0.461 -0.151,0.911 -0.272,1.351 L 226.422,222.308 263.054,185.966 c 0.922,-0.902 2.501,-0.892 3.413,0 l 121.759,119.662 v 72.706 z m 0.002,-86.726 -114.76,-112.783 c -2.346,-2.293 -5.438,-3.557 -8.709,-3.557 -3.268,0 -6.355,1.26 -8.722,3.574 l -36.748,36.457 -87.333,-85.819 c -2.346,-2.292 -5.438,-3.555 -8.709,-3.555 -3.268,0 -6.357,1.26 -8.725,3.575 L 10,233.195 V 19.896 C 10,14.439 14.439,10 19.896,10 h 358.435 c 5.457,0 9.896,4.439 9.896,9.896 z" /></svg>